<mxfile host="www.draw.io" modified="2020-03-06T04:52:58.743Z" agent="Mozilla/5.0 (Windows NT 10.0; Win64; x64) AppleWebKit/537.36 (KHTML, like Gecko) Chrome/80.0.3987.125 Safari/537.36" etag="wG9XOrZxDDfEGKWqUEmu" version="12.8.1" type="github">
  <diagram id="TktDb8XkKvhefIiNoJ9c" name="Page-1">
    <mxGraphModel dx="1902" dy="1095" grid="1" gridSize="10" guides="1" tooltips="1" connect="1" arrows="1" fold="1" page="1" pageScale="1" pageWidth="827" pageHeight="1169" math="0" shadow="0">
      <root>
        <mxCell id="0" />
        <mxCell id="1" parent="0" />
        <mxCell id="NAIBgWQppeqs1bBeTe4M-1" value="從install.img讀入config.txt 設定flags&lt;br&gt;讀入firmware, partition資訊" style="rounded=0;whiteSpace=wrap;html=1;align=center;" parent="1" vertex="1">
          <mxGeometry x="40" y="20" width="200" height="60" as="geometry" />
        </mxCell>
        <mxCell id="NAIBgWQppeqs1bBeTe4M-3" value="產生layout view" style="rounded=0;whiteSpace=wrap;html=1;align=center;" parent="1" vertex="1">
          <mxGeometry x="40" y="120" width="200" height="60" as="geometry" />
        </mxCell>
        <mxCell id="NAIBgWQppeqs1bBeTe4M-4" value="write_MBR_partition_table()" style="rounded=0;whiteSpace=wrap;html=1;align=center;" parent="1" vertex="1">
          <mxGeometry x="40" y="220" width="200" height="60" as="geometry" />
        </mxCell>
        <mxCell id="NAIBgWQppeqs1bBeTe4M-5" value="Burning firmware" style="rounded=0;whiteSpace=wrap;html=1;align=center;" parent="1" vertex="1">
          <mxGeometry x="40" y="320" width="200" height="60" as="geometry" />
        </mxCell>
        <mxCell id="NAIBgWQppeqs1bBeTe4M-6" value="Burning partition image" style="rounded=0;whiteSpace=wrap;html=1;align=center;" parent="1" vertex="1">
          <mxGeometry x="40" y="420" width="200" height="60" as="geometry" />
        </mxCell>
        <mxCell id="NAIBgWQppeqs1bBeTe4M-7" value="save firmware table to emmc" style="rounded=0;whiteSpace=wrap;html=1;align=center;" parent="1" vertex="1">
          <mxGeometry x="40" y="520" width="200" height="60" as="geometry" />
        </mxCell>
        <mxCell id="NAIBgWQppeqs1bBeTe4M-8" value="resize2fs Ext4 partitions" style="rounded=0;whiteSpace=wrap;html=1;align=center;" parent="1" vertex="1">
          <mxGeometry x="40" y="620" width="200" height="60" as="geometry" />
        </mxCell>
        <mxCell id="NAIBgWQppeqs1bBeTe4M-9" value="reboot" style="rounded=0;whiteSpace=wrap;html=1;align=center;" parent="1" vertex="1">
          <mxGeometry x="40" y="720" width="200" height="60" as="geometry" />
        </mxCell>
        <mxCell id="NAIBgWQppeqs1bBeTe4M-10" value="" style="endArrow=classic;html=1;exitX=0.5;exitY=1;exitDx=0;exitDy=0;entryX=0.5;entryY=0;entryDx=0;entryDy=0;" parent="1" source="NAIBgWQppeqs1bBeTe4M-1" target="NAIBgWQppeqs1bBeTe4M-3" edge="1">
          <mxGeometry width="50" height="50" relative="1" as="geometry">
            <mxPoint x="413" y="180" as="sourcePoint" />
            <mxPoint x="463" y="130" as="targetPoint" />
          </mxGeometry>
        </mxCell>
        <mxCell id="NAIBgWQppeqs1bBeTe4M-11" value="" style="endArrow=classic;html=1;exitX=0.5;exitY=1;exitDx=0;exitDy=0;entryX=0.5;entryY=0;entryDx=0;entryDy=0;" parent="1" edge="1">
          <mxGeometry width="50" height="50" relative="1" as="geometry">
            <mxPoint x="139" y="180" as="sourcePoint" />
            <mxPoint x="139" y="220" as="targetPoint" />
          </mxGeometry>
        </mxCell>
        <mxCell id="NAIBgWQppeqs1bBeTe4M-12" value="" style="endArrow=classic;html=1;exitX=0.5;exitY=1;exitDx=0;exitDy=0;entryX=0.5;entryY=0;entryDx=0;entryDy=0;" parent="1" edge="1">
          <mxGeometry width="50" height="50" relative="1" as="geometry">
            <mxPoint x="139" y="280" as="sourcePoint" />
            <mxPoint x="139" y="320" as="targetPoint" />
          </mxGeometry>
        </mxCell>
        <mxCell id="NAIBgWQppeqs1bBeTe4M-13" value="" style="endArrow=classic;html=1;exitX=0.5;exitY=1;exitDx=0;exitDy=0;entryX=0.5;entryY=0;entryDx=0;entryDy=0;" parent="1" edge="1">
          <mxGeometry width="50" height="50" relative="1" as="geometry">
            <mxPoint x="139" y="380" as="sourcePoint" />
            <mxPoint x="139" y="420" as="targetPoint" />
          </mxGeometry>
        </mxCell>
        <mxCell id="NAIBgWQppeqs1bBeTe4M-14" value="" style="endArrow=classic;html=1;exitX=0.5;exitY=1;exitDx=0;exitDy=0;entryX=0.5;entryY=0;entryDx=0;entryDy=0;" parent="1" edge="1">
          <mxGeometry width="50" height="50" relative="1" as="geometry">
            <mxPoint x="140" y="480" as="sourcePoint" />
            <mxPoint x="140" y="520" as="targetPoint" />
          </mxGeometry>
        </mxCell>
        <mxCell id="NAIBgWQppeqs1bBeTe4M-15" value="" style="endArrow=classic;html=1;exitX=0.5;exitY=1;exitDx=0;exitDy=0;entryX=0.5;entryY=0;entryDx=0;entryDy=0;" parent="1" source="NAIBgWQppeqs1bBeTe4M-7" target="NAIBgWQppeqs1bBeTe4M-8" edge="1">
          <mxGeometry width="50" height="50" relative="1" as="geometry">
            <mxPoint x="350" y="490" as="sourcePoint" />
            <mxPoint x="390" y="620" as="targetPoint" />
          </mxGeometry>
        </mxCell>
        <mxCell id="NAIBgWQppeqs1bBeTe4M-16" value="" style="endArrow=classic;html=1;entryX=0.5;entryY=0;entryDx=0;entryDy=0;exitX=0.5;exitY=1;exitDx=0;exitDy=0;" parent="1" source="NAIBgWQppeqs1bBeTe4M-8" target="NAIBgWQppeqs1bBeTe4M-9" edge="1">
          <mxGeometry width="50" height="50" relative="1" as="geometry">
            <mxPoint x="440" y="710" as="sourcePoint" />
            <mxPoint x="150" y="630" as="targetPoint" />
          </mxGeometry>
        </mxCell>
        <mxCell id="NAIBgWQppeqs1bBeTe4M-18" value="讀入fw_table" style="rhombus;whiteSpace=wrap;html=1;align=center;" parent="1" vertex="1">
          <mxGeometry x="280" y="50" width="160" height="100" as="geometry" />
        </mxCell>
        <mxCell id="NAIBgWQppeqs1bBeTe4M-22" value="讀入GOLDfw_table" style="rhombus;whiteSpace=wrap;html=1;align=center;" parent="1" vertex="1">
          <mxGeometry x="440" y="330" width="160" height="100" as="geometry" />
        </mxCell>
        <mxCell id="NAIBgWQppeqs1bBeTe4M-23" value="" style="endArrow=none;html=1;entryX=1;entryY=0.5;entryDx=0;entryDy=0;" parent="1" target="NAIBgWQppeqs1bBeTe4M-18" edge="1">
          <mxGeometry width="50" height="50" relative="1" as="geometry">
            <mxPoint x="520" y="100" as="sourcePoint" />
            <mxPoint x="510" y="130" as="targetPoint" />
          </mxGeometry>
        </mxCell>
        <mxCell id="NAIBgWQppeqs1bBeTe4M-24" value="" style="endArrow=classic;html=1;entryX=0.5;entryY=0;entryDx=0;entryDy=0;" parent="1" target="NAIBgWQppeqs1bBeTe4M-22" edge="1">
          <mxGeometry width="50" height="50" relative="1" as="geometry">
            <mxPoint x="520" y="100" as="sourcePoint" />
            <mxPoint x="530" y="50" as="targetPoint" />
          </mxGeometry>
        </mxCell>
        <mxCell id="NAIBgWQppeqs1bBeTe4M-25" value="根據GOLDfw_table&lt;br&gt;校驗各個fw" style="rhombus;whiteSpace=wrap;html=1;align=center;" parent="1" vertex="1">
          <mxGeometry x="440" y="470" width="160" height="100" as="geometry" />
        </mxCell>
        <mxCell id="NAIBgWQppeqs1bBeTe4M-26" value="" style="endArrow=classic;html=1;" parent="1" edge="1">
          <mxGeometry width="50" height="50" relative="1" as="geometry">
            <mxPoint x="520" y="430" as="sourcePoint" />
            <mxPoint x="520" y="470" as="targetPoint" />
          </mxGeometry>
        </mxCell>
        <mxCell id="NAIBgWQppeqs1bBeTe4M-27" value="" style="endArrow=none;html=1;entryX=1;entryY=0.5;entryDx=0;entryDy=0;" parent="1" edge="1">
          <mxGeometry width="50" height="50" relative="1" as="geometry">
            <mxPoint x="740" y="380" as="sourcePoint" />
            <mxPoint x="600" y="379.5" as="targetPoint" />
          </mxGeometry>
        </mxCell>
        <mxCell id="NAIBgWQppeqs1bBeTe4M-28" value="" style="endArrow=classic;html=1;entryX=0.5;entryY=0;entryDx=0;entryDy=0;" parent="1" edge="1">
          <mxGeometry width="50" height="50" relative="1" as="geometry">
            <mxPoint x="740" y="380" as="sourcePoint" />
            <mxPoint x="739.5" y="490" as="targetPoint" />
          </mxGeometry>
        </mxCell>
        <mxCell id="NAIBgWQppeqs1bBeTe4M-29" value="進入boot shell" style="rounded=0;whiteSpace=wrap;html=1;align=center;" parent="1" vertex="1">
          <mxGeometry x="680" y="490" width="120" height="60" as="geometry" />
        </mxCell>
        <mxCell id="NAIBgWQppeqs1bBeTe4M-31" value="" style="endArrow=classic;html=1;" parent="1" edge="1">
          <mxGeometry width="50" height="50" relative="1" as="geometry">
            <mxPoint x="600" y="520" as="sourcePoint" />
            <mxPoint x="680" y="520" as="targetPoint" />
          </mxGeometry>
        </mxCell>
        <mxCell id="NAIBgWQppeqs1bBeTe4M-32" value="失敗" style="text;html=1;strokeColor=none;fillColor=none;align=center;verticalAlign=middle;whiteSpace=wrap;rounded=0;" parent="1" vertex="1">
          <mxGeometry x="440" y="80" width="40" height="20" as="geometry" />
        </mxCell>
        <mxCell id="NAIBgWQppeqs1bBeTe4M-33" value="失敗" style="text;html=1;strokeColor=none;fillColor=none;align=center;verticalAlign=middle;whiteSpace=wrap;rounded=0;" parent="1" vertex="1">
          <mxGeometry x="600" y="360" width="40" height="20" as="geometry" />
        </mxCell>
        <mxCell id="NAIBgWQppeqs1bBeTe4M-34" value="失敗" style="text;html=1;strokeColor=none;fillColor=none;align=center;verticalAlign=middle;whiteSpace=wrap;rounded=0;" parent="1" vertex="1">
          <mxGeometry x="600" y="500" width="40" height="20" as="geometry" />
        </mxCell>
        <mxCell id="NAIBgWQppeqs1bBeTe4M-37" value="根據fw_table&lt;br&gt;校驗各個fw" style="rhombus;whiteSpace=wrap;html=1;align=center;" parent="1" vertex="1">
          <mxGeometry x="280" y="200" width="160" height="100" as="geometry" />
        </mxCell>
        <mxCell id="NAIBgWQppeqs1bBeTe4M-39" value="失敗" style="text;html=1;strokeColor=none;fillColor=none;align=center;verticalAlign=middle;whiteSpace=wrap;rounded=0;" parent="1" vertex="1">
          <mxGeometry x="440" y="230" width="40" height="20" as="geometry" />
        </mxCell>
        <mxCell id="NAIBgWQppeqs1bBeTe4M-40" value="" style="endArrow=classic;html=1;" parent="1" edge="1">
          <mxGeometry width="50" height="50" relative="1" as="geometry">
            <mxPoint x="440" y="250" as="sourcePoint" />
            <mxPoint x="520" y="250" as="targetPoint" />
          </mxGeometry>
        </mxCell>
        <mxCell id="NAIBgWQppeqs1bBeTe4M-41" value="" style="endArrow=classic;html=1;entryX=0.5;entryY=0;entryDx=0;entryDy=0;" parent="1" target="NAIBgWQppeqs1bBeTe4M-37" edge="1">
          <mxGeometry width="50" height="50" relative="1" as="geometry">
            <mxPoint x="360" y="150" as="sourcePoint" />
            <mxPoint x="360" y="190" as="targetPoint" />
          </mxGeometry>
        </mxCell>
        <mxCell id="NAIBgWQppeqs1bBeTe4M-42" value="成功" style="text;html=1;strokeColor=none;fillColor=none;align=center;verticalAlign=middle;whiteSpace=wrap;rounded=0;" parent="1" vertex="1">
          <mxGeometry x="360" y="150" width="40" height="20" as="geometry" />
        </mxCell>
        <mxCell id="NAIBgWQppeqs1bBeTe4M-43" value="成功" style="text;html=1;strokeColor=none;fillColor=none;align=center;verticalAlign=middle;whiteSpace=wrap;rounded=0;" parent="1" vertex="1">
          <mxGeometry x="520" y="430" width="40" height="20" as="geometry" />
        </mxCell>
        <mxCell id="NAIBgWQppeqs1bBeTe4M-44" value="成功" style="text;html=1;strokeColor=none;fillColor=none;align=center;verticalAlign=middle;whiteSpace=wrap;rounded=0;" parent="1" vertex="1">
          <mxGeometry x="520" y="570" width="40" height="20" as="geometry" />
        </mxCell>
        <mxCell id="NAIBgWQppeqs1bBeTe4M-46" value="" style="endArrow=classic;html=1;" parent="1" edge="1">
          <mxGeometry width="50" height="50" relative="1" as="geometry">
            <mxPoint x="520" y="570" as="sourcePoint" />
            <mxPoint x="520" y="620" as="targetPoint" />
          </mxGeometry>
        </mxCell>
        <mxCell id="NAIBgWQppeqs1bBeTe4M-47" value="進入golden rescue" style="rounded=0;whiteSpace=wrap;html=1;align=center;" parent="1" vertex="1">
          <mxGeometry x="460" y="620" width="120" height="60" as="geometry" />
        </mxCell>
        <mxCell id="NAIBgWQppeqs1bBeTe4M-49" value="" style="endArrow=classic;html=1;" parent="1" edge="1">
          <mxGeometry width="50" height="50" relative="1" as="geometry">
            <mxPoint x="360" y="300" as="sourcePoint" />
            <mxPoint x="360" y="360" as="targetPoint" />
          </mxGeometry>
        </mxCell>
        <mxCell id="NAIBgWQppeqs1bBeTe4M-50" value="成功" style="text;html=1;strokeColor=none;fillColor=none;align=center;verticalAlign=middle;whiteSpace=wrap;rounded=0;" parent="1" vertex="1">
          <mxGeometry x="360" y="300" width="40" height="20" as="geometry" />
        </mxCell>
        <mxCell id="NAIBgWQppeqs1bBeTe4M-51" value="進入主系統" style="rounded=0;whiteSpace=wrap;html=1;align=center;" parent="1" vertex="1">
          <mxGeometry x="300" y="360" width="120" height="60" as="geometry" />
        </mxCell>
      </root>
    </mxGraphModel>
  </diagram>
</mxfile>
